<?xml version="1.0" encoding="UTF-8" standalone="no"?>
<!-- Created with Inkscape (http://www.inkscape.org/) -->

<svg
   xmlns:dc="http://purl.org/dc/elements/1.1/"
   xmlns:cc="http://creativecommons.org/ns#"
   xmlns:rdf="http://www.w3.org/1999/02/22-rdf-syntax-ns#"
   xmlns:svg="http://www.w3.org/2000/svg"
   xmlns="http://www.w3.org/2000/svg"
   xmlns:sodipodi="http://sodipodi.sourceforge.net/DTD/sodipodi-0.dtd"
   xmlns:inkscape="http://www.inkscape.org/namespaces/inkscape"
   width="500px"
   height="500px"
   viewBox="0 0 500 500"
   version="1.1"
   id="SVGRoot"
   inkscape:version="0.92.2 (5c3e80d, 2017-08-06)"
   sodipodi:docname="logo3.svg">
  <sodipodi:namedview
     id="base"
     pagecolor="#ffffff"
     bordercolor="#666666"
     borderopacity="1.0"
     inkscape:pageopacity="0.0"
     inkscape:pageshadow="2"
     inkscape:zoom="1.024"
     inkscape:cx="250"
     inkscape:cy="250"
     inkscape:document-units="px"
     inkscape:current-layer="layer1"
     showgrid="true"
     inkscape:window-width="1920"
     inkscape:window-height="1001"
     inkscape:window-x="-9"
     inkscape:window-y="-9"
     inkscape:window-maximized="1">
    <inkscape:grid
       type="xygrid"
       id="grid1093" />
  </sodipodi:namedview>
  <defs
     id="defs870" />
  <metadata
     id="metadata873">
    <rdf:RDF>
      <cc:Work
         rdf:about="">
        <dc:format>image/svg+xml</dc:format>
        <dc:type
           rdf:resource="http://purl.org/dc/dcmitype/StillImage" />
        <dc:title></dc:title>
      </cc:Work>
    </rdf:RDF>
  </metadata>
  <g
     id="layer1"
     inkscape:groupmode="layer"
     inkscape:label="Layer 1">
    <path
       style="fill:none;stroke:#000000;stroke-width:10.00000095px;stroke-linecap:butt;stroke-linejoin:miter;stroke-opacity:1"
       d="M 0,0 H 500"
       id="path208"
       inkscape:connector-curvature="0" />
    <path
       style="fill:none;stroke:#000000;stroke-width:10.00000095px;stroke-linecap:butt;stroke-linejoin:miter;stroke-opacity:1"
       d="M 500,500 V 0"
       id="path210"
       inkscape:connector-curvature="0" />
    <path
       style="fill:none;stroke:#000000;stroke-width:10.00000095px;stroke-linecap:butt;stroke-linejoin:miter;stroke-opacity:1"
       d="M 0,0 V 500 H 500"
       id="path212"
       inkscape:connector-curvature="0" />
    <path
       style="fill:none;stroke:#000000;stroke-width:10.00000095px;stroke-linecap:butt;stroke-linejoin:miter;stroke-opacity:1"
       d="M 70.00005,140.00001 V 240"
       id="path214"
       inkscape:connector-curvature="0" />
    <path
       style="fill:none;stroke:#000000;stroke-width:10.00000095px;stroke-linecap:butt;stroke-linejoin:miter;stroke-opacity:1"
       d="M 70.00005,140.00001 H 120 v 50.00005 H 70.00005"
       id="path216"
       inkscape:connector-curvature="0" />
    <path
       style="fill:none;stroke:#000000;stroke-width:10.00000095px;stroke-linecap:butt;stroke-linejoin:miter;stroke-opacity:1"
       d="m 179.99999,240 v -99.99999 h 50.00002 V 240 190.00006 h -50.00002"
       id="path218"
       inkscape:connector-curvature="0" />
    <path
       style="fill:none;stroke:#000000;stroke-width:10.00000095px;stroke-linecap:butt;stroke-linejoin:miter;stroke-opacity:1"
       d="M 249.99999,140.00001 V 240"
       id="path220"
       inkscape:connector-curvature="0" />
    <path
       style="fill:none;stroke:#000000;stroke-width:10.00000095px;stroke-linecap:butt;stroke-linejoin:miter;stroke-opacity:1"
       d="M 280.00005,190.00006 249.99999,240 Z"
       id="path222"
       inkscape:connector-curvature="0" />
    <path
       style="fill:none;stroke:#000000;stroke-width:10.00000095px;stroke-linecap:butt;stroke-linejoin:miter;stroke-opacity:1"
       d="M 280.00005,190.00006 309.99999,240"
       id="path228"
       inkscape:connector-curvature="0" />
    <path
       style="fill:none;stroke:#000000;stroke-width:10.00000095px;stroke-linecap:butt;stroke-linejoin:miter;stroke-opacity:1"
       d="M 309.99999,140.00001 V 240"
       id="path230"
       inkscape:connector-curvature="0" />
    <path
       style="fill:none;stroke:#000000;stroke-width:10.00000095px;stroke-linecap:butt;stroke-linejoin:miter;stroke-opacity:1"
       d="M 330.00001,140.00001 V 240"
       id="path232"
       inkscape:connector-curvature="0" />
    <path
       style="fill:none;stroke:#000000;stroke-width:10.00000095px;stroke-linecap:butt;stroke-linejoin:miter;stroke-opacity:1"
       d="m 330.00001,140.00001 h 49.99998"
       id="path234"
       inkscape:connector-curvature="0" />
    <path
       style="fill:none;stroke:#000000;stroke-width:10.00000095px;stroke-linecap:butt;stroke-linejoin:miter;stroke-opacity:1"
       d="M 379.99999,190.00006 H 330.00001"
       id="path236"
       inkscape:connector-curvature="0" />
    <path
       style="fill:none;stroke:#000000;stroke-width:10.00000095px;stroke-linecap:butt;stroke-linejoin:miter;stroke-opacity:1"
       d="M 379.99999,240 H 330.00001"
       id="path238"
       inkscape:connector-curvature="0" />
    <path
       style="fill:none;stroke:#000000;stroke-width:10.00000095px;stroke-linecap:butt;stroke-linejoin:miter;stroke-opacity:1"
       d="M 410,140.00001 V 240"
       id="path244"
       inkscape:connector-curvature="0" />
    <path
       style="fill:none;stroke:#000000;stroke-width:10.00000095px;stroke-linecap:butt;stroke-linejoin:miter;stroke-opacity:1"
       d="m 410,240 h 40.00001"
       id="path246"
       inkscape:connector-curvature="0" />
    <path
       style="fill:none;stroke:#000000;stroke-width:10.00000095px;stroke-linecap:butt;stroke-linejoin:miter;stroke-opacity:1"
       d="M 390.00001,220.00001 430,179.99999"
       id="path248"
       inkscape:connector-curvature="0" />
    <path
       style="fill:none;stroke:#000000;stroke-width:10.00000095px;stroke-linecap:butt;stroke-linejoin:miter;stroke-opacity:1"
       d="m 70.00005,160.00001 v -20 h 9.999951"
       id="path250"
       inkscape:connector-curvature="0" />
    <path
       style="fill:none;stroke:#000000;stroke-width:10.00000095px;stroke-linecap:butt;stroke-linejoin:miter;stroke-opacity:1"
       d="M 149.99999,140.00001 V 240"
       id="path258"
       inkscape:connector-curvature="0" />
    <path
       style="fill:none;stroke:#000000;stroke-width:10.00000095px;stroke-linecap:butt;stroke-linejoin:miter;stroke-opacity:1"
       d="M 149.99999,160.00001 V 110 H 40.000051 v 160.00005"
       id="path260"
       inkscape:connector-curvature="0" />
    <path
       style="fill:none;stroke:#000000;stroke-width:10.00000095px;stroke-linecap:butt;stroke-linejoin:miter;stroke-opacity:1"
       d="M 410,230.00004 V 240 h 49.99999"
       id="path306"
       inkscape:connector-curvature="0" />
    <path
       style="fill:none;stroke:#000000;stroke-width:10.00000095px;stroke-linecap:butt;stroke-linejoin:miter;stroke-opacity:1"
       d="M 370,140.00001 H 330.00001 V 240 H 350"
       id="path308"
       inkscape:connector-curvature="0" />
    <path
       style="fill:none;stroke:#000000;stroke-width:10.00000095px;stroke-linecap:butt;stroke-linejoin:miter;stroke-opacity:1"
       d="m 40.000051,270.00005 v 130 H 149.99999 V 240"
       id="path318"
       inkscape:connector-curvature="0" />
    <path
       style="fill:none;stroke:#000000;stroke-width:10.00000095px;stroke-linecap:butt;stroke-linejoin:miter;stroke-opacity:1"
       d="M 110.00005,270.00005 H 80.000001"
       id="path324"
       inkscape:connector-curvature="0" />
    <path
       style="fill:none;stroke:#000000;stroke-width:10.00000095px;stroke-linecap:butt;stroke-linejoin:miter;stroke-opacity:1"
       d="m 120,280.00005 h -9.99995 v 0"
       id="path326"
       inkscape:connector-curvature="0" />
    <path
       style="fill:none;stroke:#000000;stroke-width:10.00000095px;stroke-linecap:butt;stroke-linejoin:miter;stroke-opacity:1"
       d="M 80.000001,280.00005 H 70.00005"
       id="path328"
       inkscape:connector-curvature="0" />
    <path
       style="fill:none;stroke:#000000;stroke-width:10.00000095px;stroke-linecap:butt;stroke-linejoin:miter;stroke-opacity:1"
       d="m 70.00005,280.00005 v 9.99999"
       id="path332"
       inkscape:connector-curvature="0" />
    <path
       style="fill:none;stroke:#000000;stroke-width:10.00000095px;stroke-linecap:butt;stroke-linejoin:miter;stroke-opacity:1"
       d="m 120,280.00005 h -9.99995 v -10 H 80.000001 v 10 H 70.00005 v 9.99999"
       id="path334"
       inkscape:connector-curvature="0" />
    <path
       style="fill:none;stroke:#000000;stroke-width:10.00000095px;stroke-linecap:butt;stroke-linejoin:miter;stroke-opacity:1"
       d="m 120,360.00005 h -9.99995 v 9.99996 H 80.000001 v -9.99996 H 70.00005 V 300"
       id="path338"
       inkscape:connector-curvature="0" />
    <path
       style="fill:none;stroke:#000000;stroke-width:10.00000095px;stroke-linecap:butt;stroke-linejoin:miter;stroke-opacity:1"
       d="m 120,280.00005 v 9.99999"
       id="path340"
       inkscape:connector-curvature="0" />
    <path
       style="fill:none;stroke:#000000;stroke-width:10.00000095px;stroke-linecap:butt;stroke-linejoin:miter;stroke-opacity:1"
       d="m 100,270.00005 h 10.00005 v 10 H 120 v 9.99999"
       id="path344"
       inkscape:connector-curvature="0" />
    <path
       style="fill:none;stroke:#000000;stroke-width:10.00000095px;stroke-linecap:butt;stroke-linejoin:miter;stroke-opacity:1"
       d="m 179.99999,270.00005 v 99.99996"
       id="path352"
       inkscape:connector-curvature="0" />
    <path
       style="fill:none;stroke:#000000;stroke-width:10.00000095px;stroke-linecap:butt;stroke-linejoin:miter;stroke-opacity:1"
       d="m 70.00005,280.00005 v 80 h 9.999951 v 9.99996 h 30.000049 v -9.99996 H 120 v -10"
       id="path354"
       inkscape:connector-curvature="0" />
    <path
       style="fill:none;stroke:#000000;stroke-width:10.00000095px;stroke-linecap:butt;stroke-linejoin:miter;stroke-opacity:1"
       d="m 200,270.00005 v 99.99996 h 49.99999 v -99.99996"
       id="path356"
       inkscape:connector-curvature="0" />
    <path
       style="fill:none;stroke:#000000;stroke-width:10.00000095px;stroke-linecap:butt;stroke-linejoin:miter;stroke-opacity:1"
       d="m 269.99999,370.00001 v -99.99996 h 50.00002 v 50 h -50.00002"
       id="path358"
       inkscape:connector-curvature="0" />
    <path
       style="fill:none;stroke:#000000;stroke-width:10.00000095px;stroke-linecap:butt;stroke-linejoin:miter;stroke-opacity:1"
       d="M 340,370.00001 V 270.00005"
       id="path360"
       inkscape:connector-curvature="0" />
    <path
       style="fill:none;stroke:#000000;stroke-width:10.00000095px;stroke-linecap:butt;stroke-linejoin:miter;stroke-opacity:1"
       d="m 340,320.00005 50.00001,49.99996"
       id="path374"
       inkscape:connector-curvature="0" />
    <path
       style="fill:none;stroke:#000000;stroke-width:10.00000095px;stroke-linecap:butt;stroke-linejoin:miter;stroke-opacity:1"
       d="m 340,320.00005 50.00001,-50"
       id="path395"
       inkscape:connector-curvature="0" />
    <path
       style="fill:none;stroke:#000000;stroke-width:10.00000095px;stroke-linecap:butt;stroke-linejoin:miter;stroke-opacity:1"
       d="m 410,370.00001 v -99.99996 h 49.99999 v 99.99996 -49.99996 H 410"
       id="path218-0"
       inkscape:connector-curvature="0" />
    <path
       style="fill:none;stroke:#000000;stroke-width:10.00000095px;stroke-linecap:butt;stroke-linejoin:miter;stroke-opacity:1"
       d="M 500,0 H 0 v 500 h 500 z"
       id="path412"
       inkscape:connector-curvature="0" />
    <path
       style="fill:#cccccc;stroke-width:0.690534"
       d="m 45.203852,254.93565 v -139.8331 h 49.71845 49.718458 v 139.8331 139.83316 H 94.922302 45.203852 Z m 70.434448,115.3192 v -5.17905 h 4.83375 4.83375 v -7.59584 -7.59591 h -5.17905 -5.179 v 2.4169 2.41685 h -5.179 -5.179 v 4.83375 4.83375 H 94.922302 85.2548 v -4.83375 -4.83375 H 80.421051 75.587352 V 320.22265 285.7275 l 4.661099,-0.20396 4.661101,-0.2046 0.203001,-5.00635 0.203004,-5.00641 h 9.606949 9.606994 l 0.20301,5.00641 0.203,5.00635 5.00635,0.20292 5.00635,0.2029 v 2.38665 2.38661 h 5.179 5.17905 v -7.94119 -7.94116 h -4.83385 -4.83375 v -4.83375 -4.83369 H 95.267909 74.897159 v 4.83369 4.83375 H 69.71816 64.539159 v 45.23 45.22995 h 5.179001 5.179049 v 5.17899 5.17901 h 20.37075 20.370751 z M 75.587352,217.64679 v -22.44236 h 24.859198 24.85925 v -30.38348 -30.3835 H 94.922302 64.5388 v 52.82585 52.82586 h 5.524253 5.524299 z"
       id="path414"
       inkscape:connector-curvature="0" />
    <path
       style="fill:#cccccc;stroke-width:0.690534"
       d="M 75.587352,165.16626 V 145.486 h 19.6802 19.680198 v 19.68026 19.68019 h -19.680198 -19.6802 z"
       id="path416"
       inkscape:connector-curvature="0" />
    <path
       style="fill:#ffffff;stroke-width:0.8838836"
       d="M 44.832501,255.11171 V 115.45815 H 94.77195 144.71136 V 255.11171 394.7653 H 94.77195 44.832501 Z M 115.5432,370.5047 v -4.81513 l 4.6404,-0.26703 4.64035,-0.26699 0.2555,-7.734 0.2555,-7.73395 h -5.3378 c -5.0753,0 -5.3377,0.10669 -5.3377,2.1656 0,2.01634 -0.35,2.18385 -5.0823,2.43065 l -5.08235,0.265 -0.267,4.6404 -0.267,4.64041 h -9.23445 -9.234599 v -4.93982 -4.93989 l -5.4,0.29951 -5.400051,0.2995 0.296002,-32.26171 c 0.162488,-17.74399 0.447999,-33.13739 0.633498,-34.20759 0.289002,-1.6656 0.992402,-1.98387 4.88325,-2.20971 l 4.545551,-0.264 0.264999,-5.08235 0.265002,-5.08231 h 9.122499 9.122499 l 0.6,5.30332 0.6,5.30329 h 4.81745 c 4.5494,0 4.8175,0.12292 4.8175,2.2097 0,2.11149 0.2355,2.20971 5.3033,2.20971 h 5.3033 v -7.95502 -7.95492 h -4.86145 -4.86135 v -4.86136 -4.86134 H 95.214451 74.885101 v 4.86134 4.86136 h -5.10415 -5.104152 l 0.02003,45.29903 0.02004,45.29904 5.082349,0.265 5.0823,0.26502 v 4.81719 4.8173 H 95.210859 115.54016 Z M 75.768451,217.98862 V 195.89155 H 100.5172 125.2659 V 164.9556 134.0197 H 94.970701 64.675451 l 0.05,13.4792 c 0.025,7.4136 0.136492,31.27844 0.242999,53.03299 l 0.194011,39.5538 h 5.303299 5.303301 z"
       id="path500"
       inkscape:connector-curvature="0" />
    <path
       style="fill:#ececec;stroke-width:0.8838836"
       d="m 75.764852,176.22516 c -0.002,-4.49682 -0.262001,-13.24726 -0.578351,-19.44545 l -0.574799,-11.2695 h 20.0238 20.023748 v 19.44539 19.44545 h -19.445349 -19.4454 z"
       id="path502"
       inkscape:connector-curvature="0" />
    <path
       style="fill:#f2f2f2;stroke-width:0.8838836"
       d="M 44.832501,255.11171 V 115.45815 H 94.77195 144.71136 V 255.11171 394.7653 H 94.77195 44.832501 Z M 115.5432,370.4585 v -4.86136 h 4.86135 4.86135 v -7.95492 -7.95497 h -5.3033 c -4.6141,0 -5.3033,0.21751 -5.3033,1.6732 0,2.06674 -1.65815,2.74619 -6.7014,2.74619 h -3.9052 v 4.86142 4.86134 h -9.28075 -9.280799 v -4.86134 -4.86142 h -5.422649 -5.422701 l 0.65365,-33.36659 c 0.459499,-23.46001 0.954202,-33.55934 1.66615,-34.01594 0.556899,-0.35701 2.703001,-0.65551 4.7691,-0.66291 l 3.7565,-0.0146 v -5.33414 -5.33426 l 9.059801,0.252 c 8.934348,0.24851 9.063098,0.28249 9.298198,2.46166 0.8402,7.78809 0.9364,7.95494 4.5907,7.95494 4.5638,0 6.21945,0.73104 6.21945,2.74621 0,1.45574 0.6892,1.6732 5.3033,1.6732 h 5.3033 v -7.95405 -7.95497 h -4.8614 -4.86135 v -4.86134 -4.86139 H 95.213901 74.884551 v 4.86139 4.86134 h -5.303299 -5.303301 v 45.52001 45.51999 h 5.303301 5.303299 v 4.86136 4.86134 H 95.213901 115.5432 Z M 75.768451,217.98862 V 195.89155 H 100.5172 125.2659 V 164.9556 134.0197 H 94.753301 64.240702 l 0.2195,35.5763 c 0.120496,19.56702 0.344499,43.43179 0.497,53.033 l 0.2775,17.45669 h 5.267099 5.267051 z"
       id="path504"
       inkscape:connector-curvature="0" />
    <path
       style="fill:#f2f2f2;stroke-width:0.8838836"
       d="M 44.832501,255.11171 V 115.45815 H 94.77195 144.71136 V 255.11171 394.7653 H 94.77195 44.832501 Z M 115.5432,370.5047 v -4.81513 l 4.6404,-0.26703 4.64035,-0.26699 0.2555,-7.734 0.2555,-7.73395 h -4.9177 c -4.4322,0 -5.0006,0.218 -5.75775,2.20969 -0.68985,1.81427 -1.43725,2.21212 -4.1766,2.22321 -4.6574,0.021 -5.67135,0.93855 -6.1993,5.62244 l -0.4605,4.08677 h -9.1659 -9.165799 v -4.94297 -4.94299 l -5.08235,0.3025 -5.08235,0.30249 0.075,-30.49399 c 0.04,-16.77171 0.239999,-32.28634 0.442001,-34.47709 l 0.3675,-3.98311 4.419449,0.004 4.419399,0.004 0.266502,-5.13196 0.266499,-5.13191 9.01425,0.16249 9.014199,0.16249 0.8867,4.96962 0.8867,4.96965 4.5744,-0.035 c 2.51595,-0.021 4.4507,0.17981 4.29945,0.44199 -0.15101,0.26199 0.063,1.37121 0.4765,2.46499 0.65465,1.73216 1.3825,1.98872 5.6415,1.98872 l 4.8898,6.3e-4 v -7.95448 -7.95491 h -4.8618 -4.86135 v -4.8614 -4.86134 H 95.214099 74.88475 v 4.81725 4.81724 l -5.082299,0.26502 -5.082352,0.26498 v 45.07805 45.07805 l 5.082352,0.265 5.082299,0.26499 v 4.81726 4.81725 H 95.214099 115.5434 Z M 75.768451,217.98862 V 195.89155 H 100.5172 125.2659 V 164.9556 134.0197 H 95.266052 c -16.499952,0 -30.18155,0.2985 -30.403551,0.6629 -0.221998,0.3645 -0.185506,24.22945 0.081,53.03301 l 0.485,52.37008 h 5.16975 5.16975 z"
       id="path506"
       inkscape:connector-curvature="0" />
    <path
       style="fill:#f9f9f9;stroke-width:0.8838836"
       d="m 75.723002,173.57346 c -0.025,-5.95515 -0.235001,-14.70561 -0.467,-19.4454 l -0.4215,-8.61785 H 94.746751 114.659 v 19.44539 19.44545 H 95.213551 75.768101 Z"
       id="path508"
       inkscape:connector-curvature="0" />
    <path
       style="fill:#f9f9f9;stroke-width:0.8838836"
       d="M 44.832501,255.11171 V 115.45815 H 94.77195 144.71136 V 255.11171 394.7653 H 94.77195 44.832501 Z M 115.5432,370.5047 v -4.81513 l 4.6404,-0.26703 4.64035,-0.26699 0.2555,-7.734 0.2555,-7.73395 h -4.9177 c -4.3549,0 -5.00845,0.23899 -5.711,2.08669 -0.63535,1.67106 -1.6652,2.20241 -5.16965,2.66733 l -4.37625,0.58048 -0.5842,4.40381 -0.5842,4.4038 h -9.250348 -9.250301 v -4.93735 -4.93736 l -5.082351,0.29699 -5.082348,0.29701 0.005,-30.49401 c 0.0041,-16.77164 0.178004,-32.38324 0.386,-34.6924 l 0.378499,-4.19845 h 4.6962 4.696201 v -4.86134 -4.86134 h 9.180448 9.18045 l 0.7647,5.0823 0.7647,5.08234 4.573,-0.2965 c 4.4472,-0.288 4.58085,-0.2275 4.85995,2.2097 0.274,2.39189 0.51835,2.51811 5.36925,2.77109 l 5.08235,0.26501 v -7.9989 -7.99909 h -4.86145 -4.86135 v -4.86137 -4.86134 H 95.211184 74.881834 v 4.86134 4.8614 h -4.791001 -4.790949 l -0.4655,5.52426 c -0.255999,3.03834 -0.387001,23.42291 -0.2915,45.29906 l 0.174,39.77476 5.08235,0.26498 5.082351,0.265 v 4.81724 4.81727 H 95.210884 115.54023 Z M 75.768451,217.98862 V 195.89155 H 100.5172 125.2659 V 164.8265 133.76145 l -29.646399,0.46 c -16.305549,0.253 -29.910099,0.7237 -30.23225,1.0459 -0.6657,0.6657 -0.685401,3.58751 -0.4195,62.17089 l 0.194009,42.64736 h 5.3033 5.303299 z"
       id="path510"
       inkscape:connector-curvature="0" />
    <path
       style="fill:#ffffff;stroke-width:0.8838836"
       d="m 75.768451,171.7181 c 0,-6.97564 -0.256998,-15.7261 -0.5716,-19.44544 l -0.5716,-6.76251 h 20.0171 20.017049 v 19.44545 19.44545 H 95.213901 75.768451 Z"
       id="path512"
       inkscape:connector-curvature="0" />
    <path
       style="fill:#ffffff;stroke-width:0.8838836"
       d="M 44.832501,255.11171 V 115.45815 H 94.77195 144.71136 V 255.11171 394.7653 H 94.77195 44.832501 Z M 115.5432,370.5047 v -4.81513 l 4.6404,-0.26703 4.64035,-0.26699 0.2555,-7.734 0.2555,-7.73395 h -4.9177 c -4.3549,0 -5.00845,0.23899 -5.711,2.08669 -0.63535,1.67106 -1.6652,2.20241 -5.16965,2.66733 l -4.37625,0.58048 -0.5842,4.40381 -0.5842,4.4038 h -9.250348 -9.250349 v -4.9429 -4.94306 l -5.082303,0.3025 -5.082348,0.30249 -0.079,-27.40038 c -0.045,-15.07019 0.09801,-30.6818 0.314499,-34.6924 l 0.3935,-7.29207 h 4.767751 4.7678 v -4.86133 -4.86141 h 9.1703 9.170248 l 0.5524,2.76216 c 0.3035,1.51919 0.5524,3.7068 0.5524,4.86134 0,1.95216 0.3365,2.09924 4.80265,2.09924 4.5822,0 4.8155,0.11143 5.08235,2.43067 0.265,2.30104 0.5508,2.44484 5.362,2.69573 l 5.08235,0.26501 v -7.99904 -7.99907 h -4.8613 -4.86135 v -4.86135 -4.86134 h -20.329345 -20.3293 v 4.86134 4.86135 h -4.785951 -4.785951 l -0.495,6.40818 c -0.272501,3.52448 -0.4055,23.90903 -0.2965,45.29902 l 0.198507,38.89087 5.082349,0.265 5.0823,0.26498 v 4.81725 4.81726 H 95.213658 115.54296 Z M 75.768451,217.98862 V 195.89155 H 100.5172 125.2659 V 164.92521 133.9589 l -19.22445,0.224 c -10.573448,0.12301 -24.09685,0.3595 -30.052049,0.52435 l -10.82755,0.3 v 52.5391 52.53909 h 5.303301 5.303299 z"
       id="path514"
       inkscape:connector-curvature="0" />
    <path
       style="fill:#ffffff;stroke-width:0.8838836"
       d="m 75.768451,173.04636 c 0,-6.2451 -0.2585,-14.99556 -0.574301,-19.44547 l -0.574299,-8.09068 H 94.63955 114.6593 v 19.44539 19.44545 h -19.445449 -19.4454 z"
       id="path516"
       inkscape:connector-curvature="0" />
    <path
       style="fill:#ffffff;stroke-width:0.8838836"
       d="m 75.764452,174.89931 c -0.0023,-5.22595 -0.262001,-13.97642 -0.577051,-19.44545 l -0.573,-9.94365 h 20.0224 20.022449 v 19.44539 19.44545 H 95.213851 75.768402 Z"
       id="path518"
       inkscape:connector-curvature="0" />
    <path
       style="fill:#ffffff;stroke-width:0.8838836"
       d="m 185.37,164.9556 v -19.44539 h 19.44545 19.4454 v 19.44539 19.44545 H 204.81545 185.37 Z"
       id="path520"
       inkscape:connector-curvature="0" />
    <path
       style="fill:#ffffff;stroke-width:0.8838836"
       d="M 5.0577504,250.25035 V 5.8566003 H 249.89352 494.72921 V 250.25035 494.64415 H 249.89352 5.0577504 Z M 155.31796,255.11171 V 104.85155 H 94.77195 34.2259 V 255.11171 405.3719 h 60.54605 60.54601 z m 99.87884,67.17519 v -53.03306 h -5.30328 -5.30332 v 47.72975 47.72972 h -19.43775 -19.4378 l -0.2285,-47.50874 -0.2285,-47.50876 h -5.30325 -5.3033 l -0.22801,52.81203 -0.228,52.81206 h 30.50096 30.50089 z m 135.69561,47.70971 3.47184,-3.5555 -23.1778,-23.17787 -23.17784,-23.17782 23.1758,-23.18817 23.17579,-23.18821 -3.46985,-3.55339 c -1.9084,-1.95439 -3.8831,-3.55344 -4.3882,-3.55344 -0.50511,0 -9.9704,9.04554 -21.03385,20.10115 l -20.1154,20.10115 V 288.0292 269.25384 h -5.30331 -5.30328 v 50.3814 50.38131 h 5.30328 5.30331 v -18.3381 -18.3382 l 20.10595,20.10596 c 11.0582,11.05825 20.52346,20.10589 21.0338,20.10589 0.51031,0 2.49026,-1.59996 4.39976,-3.55549 z M 185.37,319.63524 v -50.3814 h -5.30328 -5.30332 v 50.3814 50.38131 h 5.30332 5.30328 z m 90.15611,28.28427 V 325.8224 h 24.74876 24.74873 v -30.494 -30.49395 h -30.05205 -30.05204 v 52.59106 52.59104 h 5.30328 5.30332 z m 139.65359,0 V 325.8224 h 19.88741 19.88733 v 22.09711 22.09704 h 5.30331 5.3033 v -52.59104 -52.59106 h -30.49394 -30.49402 v 52.59106 52.59104 h 5.30332 5.30329 z M 380.70824,240.08569 v -5.30328 H 358.1692 335.63021 v -19.88737 -19.88738 h 22.53899 22.53904 v -5.30332 -5.30329 H 358.1692 335.63021 V 164.9556 145.51021 h 22.53899 22.53904 v -5.30337 -5.30324 h -27.72219 -27.7222 l -0.56211,4.1008 c -0.73278,5.34644 -0.73278,96.93732 0,102.2838 l 0.56211,4.1008 h 27.7222 27.72219 z m 79.54951,0 v -5.30328 H 437.71876 415.1797 v -16.11647 -16.1164 l 9.48769,-9.51723 9.48771,-9.51721 -3.73614,-3.7362 -3.73621,-3.73616 -5.75148,5.70041 -5.75157,5.70042 V 163.3833 139.32299 h -5.30329 -5.30332 v 29.40491 29.40491 l -9.272,9.2405 -9.27204,9.24043 3.71732,3.78766 3.71728,3.78764 5.55476,-5.50534 5.55468,-5.50534 v 16.10533 16.10531 h 27.84235 27.84231 z M 267.14039,221.99175 c 6.79976,-11.41006 12.56341,-20.75715 12.80812,-20.77127 0.2445,-0.0146 5.97384,9.22198 12.73144,20.52462 6.7576,11.30269 12.4364,20.72824 12.61956,20.94581 0.18291,0.21747 1.47599,-0.2795 2.87288,-1.10485 1.39692,-0.82522 3.57231,-1.50037 4.83417,-1.50037 h 2.2943 v -50.38135 -50.38135 h -5.29437 -5.29439 l -0.23001,40.24106 -0.22998,40.24109 -9.72271,-16.35672 c -7.3398,-12.34793 -10.04765,-16.21452 -11.04855,-15.77656 -1.5204,0.66539 -5.16484,0.77388 -6.98054,0.20794 -0.8263,-0.25751 -4.48415,5.01093 -11.04857,15.91373 l -9.81324,16.29886 -0.22999,-40.38465 -0.23,-40.38464 h -5.29441 -5.29435 v 50.38134 50.38136 h 2.4827 c 1.36551,0 3.25479,0.584 4.19846,1.29768 0.9436,0.71371 2.11849,1.31042 2.61079,1.32587 0.4925,0.0146 6.4585,-9.3074 13.25825,-20.71753 z M 185.37,217.54665 v -22.53899 h 19.44545 19.4454 v 22.53899 22.53904 h 5.74525 5.74525 V 187.49465 134.9036 h -30.494 -30.49395 v 52.59105 52.59104 h 5.30332 5.30328 z"
       id="path522"
       inkscape:connector-curvature="0" />
    <path
       style="fill:#ffffff;stroke-width:0.8838836"
       d="M 5.0577504,250.25035 V 5.8566003 H 249.89352 494.72921 V 250.25035 494.64415 H 249.89352 5.0577504 Z M 155.31796,255.11171 V 104.85155 H 94.77195 34.2259 V 255.11171 405.3719 h 60.54605 60.54601 z m 99.87884,67.17519 v -53.03306 h -5.30328 -5.30332 v 47.72975 47.72972 h -19.43775 -19.4378 l -0.2285,-47.50874 -0.2285,-47.50876 h -5.30325 -5.3033 l -0.22801,52.81203 -0.228,52.81206 h 30.50096 30.50089 z m 135.69561,47.70971 3.47184,-3.5555 -23.1778,-23.17787 -23.17784,-23.17782 23.1758,-23.18817 23.17579,-23.18821 -3.46985,-3.55339 c -1.9084,-1.95439 -3.86644,-3.55344 -4.35126,-3.55344 -0.48449,0 -9.95,9.03728 -21.03378,20.08289 L 345.3529,306.768 v -18.75706 -18.7571 h -5.30331 -5.30328 v 50.3814 50.38131 h 5.30328 5.30331 v -18.29814 -18.29814 l 20.18821,20.06593 c 11.10354,11.03624 20.56874,20.0659 21.03384,20.0659 0.46501,0 2.40796,-1.59996 4.31746,-3.55549 z M 185.37,319.63524 v -50.3814 h -5.30328 -5.30332 v 50.3814 50.38131 h 5.30332 5.30328 z m 90.15611,28.28427 V 325.8224 h 24.74876 24.74873 v -30.494 -30.49395 h -30.05205 -30.05204 v 52.59106 52.59104 h 5.30328 5.30332 z m 139.65359,0 V 325.8224 h 19.88741 19.88733 v 22.09711 22.09704 h 5.30331 5.3033 v -52.59104 -52.59106 h -30.49394 -30.49402 v 52.59106 52.59104 h 5.30332 5.30329 z M 380.70824,240.08569 v -5.30328 H 358.1692 335.63021 v -19.88737 -19.88738 h 22.53899 22.53904 v -5.30332 -5.30329 H 358.1692 335.63021 V 164.9556 145.51021 h 22.53899 22.53904 v -5.30337 -5.30324 h -27.70797 -27.70801 l -0.5763,9.41826 c -0.31699,5.18005 -0.57631,25.80103 -0.57631,45.82446 0,20.02338 0.2595,40.64438 0.57631,45.82443 l 0.5763,9.41825 h 27.70801 27.70797 z m 79.54951,0 v -5.30328 H 437.71876 415.1797 v -16.11647 -16.1164 l 9.48769,-9.51723 9.48771,-9.51721 -3.73614,-3.7362 -3.73621,-3.73616 -5.75148,5.70041 -5.75157,5.70042 V 163.3833 139.32299 h -5.30329 -5.30332 v 29.40491 29.40491 l -9.272,9.2405 -9.27204,9.24043 3.71732,3.78766 3.71728,3.78764 5.55476,-5.50534 5.55468,-5.50534 v 16.10533 16.10531 h 27.84235 27.84231 z M 268.0131,220.37065 c 6.31974,-10.5374 11.6907,-19.16269 11.93541,-19.16735 0.2445,-0.004 5.97384,9.23916 12.73144,20.5418 6.7576,11.30269 12.3872,20.67909 12.5102,20.83644 0.12313,0.15757 1.43421,-0.33999 2.9136,-1.10483 1.47945,-0.76511 3.70406,-1.39102 4.9435,-1.39102 h 2.25361 v -50.38135 -50.38135 h -5.29437 -5.29439 l -0.23001,40.34901 -0.22998,40.349 -9.78995,-16.2632 c -6.66646,-11.0744 -10.19151,-16.13786 -11.0485,-15.8704 -0.69221,0.216 -2.65077,0.415 -4.35225,0.44199 -1.70147,0.025 -3.554,0.34851 -4.11682,0.71381 -0.5628,0.36551 -5.13682,7.49061 -10.16463,15.83346 l -9.14146,15.16885 -0.22999,-40.36126 -0.23,-40.3612 h -5.29441 -5.29435 v 50.38135 50.38136 l 2.43065,0.0299 c 1.3369,0.0146 3.42505,0.5993 4.64042,1.2934 2.87912,1.64444 2.30038,2.38915 16.35182,-21.03979 z m -82.6431,-2.824 v -22.53899 h 19.44545 19.4454 v 22.53899 22.53904 h 5.74525 5.74525 V 187.49465 134.9036 h -30.494 -30.49395 v 52.59105 52.59104 h 5.30332 5.30328 z"
       id="path524"
       inkscape:connector-curvature="0" />
    <path
       style="fill:#ffffff;stroke-width:0.8838836"
       d="M 5.0577504,250.25035 V 5.8566003 H 249.89352 494.72921 V 250.25035 494.64415 H 249.89352 5.0577504 Z M 155.31796,255.11171 V 104.85155 H 94.77195 34.2259 V 255.11171 405.3719 h 60.54605 60.54601 z m 99.87884,67.17519 v -53.03306 h -5.30328 -5.30332 v 47.72975 47.72972 h -19.44545 -19.44544 v -47.2878 -47.28775 h -5.16492 -5.16489 l -0.57746,13.92115 c -0.31747,7.65663 -0.57869,31.32264 -0.58029,52.59104 l -0.002,38.66995 h 30.49398 30.49401 z m 136.53054,46.89454 2.6222,-2.75503 -23.17044,-23.17052 -23.17049,-23.17047 23.1758,-23.18817 23.17579,-23.18821 -3.46985,-3.55339 c -1.9084,-1.95439 -3.8347,-3.55344 -4.28071,-3.55344 -0.446,0 -9.91122,9.02266 -21.03383,20.05028 L 345.3529,306.70275 V 287.9783 269.25384 h -5.30331 -5.30328 v 50.3814 50.38131 h 5.30328 5.30331 V 351.77339 333.5302 l 20.34376,20.03435 c 22.21689,21.87899 20.85065,21.0593 26.03068,15.61689 z M 185.37,319.63524 v -50.3814 h -5.30328 -5.30332 v 50.3814 50.38131 h 5.30332 5.30328 z m 90.15611,28.28427 V 325.8224 h 24.74876 24.74873 v -30.494 -30.49395 h -30.05205 -30.05204 v 52.59106 52.59104 h 5.30328 5.30332 z m 139.65359,0 V 325.8224 h 19.88741 19.88733 v 22.09711 22.09704 h 5.30331 5.3033 v -52.59104 -52.59106 h -30.49394 -30.49402 v 52.59106 52.59104 h 5.30332 5.30329 z M 380.70824,240.08569 v -5.30328 H 358.1692 335.63021 v -19.88737 -19.88738 h 22.53899 22.53904 v -5.30332 -5.30329 H 358.1692 335.63021 V 164.9556 145.51021 h 22.53899 22.53904 v -5.30337 -5.30324 h -27.74078 -27.74082 l -0.66678,27.1794 c -0.36701,14.94865 -0.41599,37.12311 -0.10961,49.2765 0.30651,12.15341 0.56091,24.78191 0.56531,28.06332 l 0.0107,5.96618 h 27.84236 27.84231 z m 79.54951,0 v -5.30328 H 437.71876 415.1797 v -16.11647 -16.1164 l 9.48769,-9.51723 9.48771,-9.51721 -3.73614,-3.7362 -3.73621,-3.73616 -5.75148,5.70041 -5.75157,5.70042 V 163.3833 139.32299 h -5.30329 -5.30332 v 29.40491 29.40491 l -9.272,9.2405 -9.27204,9.24043 3.71732,3.78766 3.71728,3.78764 5.55476,-5.50534 5.55468,-5.50534 v 16.10533 16.10531 h 27.84235 27.84231 z M 267.27564,221.52164 c 6.72541,-11.17579 12.4268,-20.31848 12.66986,-20.31708 0.243,0.002 5.19039,7.8553 10.99405,17.4531 16.50519,27.29574 14.25226,24.32487 17.26549,22.76669 1.42377,-0.73618 3.60277,-1.33866 4.84221,-1.33866 h 2.25361 v -50.38135 -50.38135 h -5.29437 -5.29439 l -0.23001,40.36126 -0.22998,40.36118 -9.14146,-15.16885 c -5.02775,-8.34284 -9.6019,-15.46012 -10.16463,-15.81618 -0.56282,-0.35599 -2.93652,-0.69191 -5.27502,-0.7464 -4.96555,-0.11562 -4.35739,-0.8308 -16.59044,19.50994 l -7.44206,12.37437 -0.22999,-40.43765 -0.23,-40.43771 h -5.29446 -5.29433 v 50.38136 50.38138 l 2.43063,0.0299 c 1.33691,0.0146 3.4201,0.57891 4.62931,1.24824 1.20923,0.66932 2.46841,1.05027 2.79808,0.84651 0.32951,-0.20397 6.10206,-9.51429 12.82742,-20.6901 z M 185.37,217.54665 v -22.53899 h 19.44545 19.4454 v 22.53899 22.53904 h 5.74525 5.74525 V 187.49465 134.9036 h -30.494 -30.49395 v 52.59105 52.59104 h 5.30332 5.30328 z"
       id="path526"
       inkscape:connector-curvature="0" />
    <path
       style="fill:#ffffff;stroke-width:0.8838836"
       d="M 5.0577504,250.25035 V 5.8566003 H 249.89352 494.72921 V 250.25035 494.64415 H 249.89352 5.0577504 Z M 155.31796,255.11171 V 104.85155 H 94.77195 34.2259 V 255.11171 405.3719 h 60.54605 60.54601 z m 99.87884,67.17519 v -53.03306 h -5.30328 -5.30332 v 47.72975 47.72972 h -19.44545 -19.44544 v -47.2878 -47.28775 h -5.16092 -5.16088 l -0.58272,25.85359 c -0.32049,14.21945 -0.58338,37.88544 -0.58429,52.59106 l -0.002,26.73749 h 30.49395 30.49399 z m 135.91006,47.32411 3.30159,-3.0572 -23.19993,-23.23421 -23.19991,-23.23418 23.16845,-23.18086 23.16849,-23.18086 -2.6202,-2.75289 c -5.1777,-5.44002 -3.8127,-6.25912 -26.02869,15.61899 L 345.3529,306.62411 V 287.939 269.25384 h -5.30331 -5.30328 v 50.3814 50.38131 h 5.30328 5.30331 v -18.20154 -18.20154 l 20.02214,19.52738 c 11.01221,10.74005 20.56396,19.52735 21.22621,19.52735 0.66221,0 2.68973,-1.37569 4.50561,-3.05719 z M 185.37,319.63524 v -50.3814 h -5.30328 -5.30332 v 50.3814 50.38131 h 5.30332 5.30328 z m 90.15611,28.28427 V 325.8224 h 24.74876 24.74873 v -30.494 -30.49395 h -30.05205 -30.05204 v 52.59106 52.59104 h 5.30328 5.30332 z m 139.65359,0 V 325.8224 h 19.88741 19.88733 v 22.09711 22.09704 h 5.30331 5.3033 v -52.59104 -52.59106 h -30.49394 -30.49402 v 52.59106 52.59104 h 5.30332 5.30329 z M 380.70824,240.08569 v -5.30328 H 358.1692 335.63021 v -19.88737 -19.88738 h 22.53899 22.53904 v -5.30332 -5.30329 H 358.1692 335.63021 V 164.9556 145.51021 h 22.53899 22.53904 v -5.30337 -5.30324 H 352.86589 325.0236 l -0.11797,19.22446 c -0.0649,10.57344 -0.2285,20.6166 -0.36351,22.31804 -0.13559,1.70145 -0.0205,17.9097 0.26101,36.01826 l 0.50685,32.92464 h 27.6992 27.6992 z m 79.54951,0 v -5.30328 H 437.71876 415.1797 v -16.11647 -16.1164 l 9.48769,-9.51723 9.48771,-9.51721 -3.73614,-3.7362 -3.73621,-3.73616 -5.75148,5.70041 -5.75157,5.70042 V 163.3833 139.32299 h -5.30329 -5.30332 v 29.40491 29.40491 l -9.27013,9.23864 -9.27016,9.2386 3.26236,3.3409 c 1.79428,1.83755 3.66723,3.34102 4.16219,3.34102 0.49499,0 3.19839,-2.27467 6.00781,-5.05473 l 5.10793,-5.05463 v 16.10318 16.10321 h 27.84235 27.84231 z m -147.2105,0 h 2.25361 v -50.38135 -50.38135 h -5.29437 -5.29439 l -0.23001,40.405 -0.22998,40.405 -5.23761,-8.80613 c -2.88075,-4.84342 -7.32014,-12.0468 -9.86534,-16.00755 l -4.62771,-7.2013 -4.65755,0.25148 c -5.49604,0.29652 -4.38684,-0.95558 -15.66776,17.68691 l -8.55764,14.14217 -0.22999,-40.43772 -0.23,-40.43765 h -5.29441 -5.29435 v 50.38136 50.38135 h 1.92594 c 1.05931,0 3.24466,0.47699 4.85641,1.05964 3.57531,1.29285 2.05425,3.20939 16.75075,-21.10639 6.25916,-10.35596 11.59009,-18.83237 11.84651,-18.83655 0.25649,-0.004 5.20444,7.84795 10.99553,17.44914 16.44677,27.26749 14.2245,24.33201 17.23971,22.77279 1.42375,-0.73619 3.60269,-1.33863 4.84219,-1.33863 z M 185.37,217.54665 v -22.53899 h 19.44545 19.4454 v 22.53899 22.53904 h 5.74525 5.74525 V 187.49465 134.9036 h -30.494 -30.49395 v 52.59105 52.59104 h 5.30332 5.30328 z"
       id="path528"
       inkscape:connector-curvature="0" />
    <path
       style="fill:#ffffff;stroke-width:0.8838836"
       d="M 5.0577504,250.25035 V 5.8566003 H 249.89352 494.72921 V 250.25035 494.64415 H 249.89352 5.0577504 Z M 155.31796,255.11171 V 104.85155 H 94.77195 34.2259 V 255.11171 405.3719 h 60.54605 60.54601 z m 99.87884,67.17519 v -53.03306 h -5.30328 -5.30332 v 47.72975 47.72972 h -19.44545 -19.44544 v -47.2878 -47.28775 h -5.30332 -5.30328 l -0.002,9.50173 c -8.9e-4,5.22595 -0.2645,28.89196 -0.58606,52.59106 l -0.5844,43.08935 h 30.63806 30.638 v -53.033 z m 135.74979,47.34461 3.46186,-3.03672 -23.21495,-23.27793 -23.21494,-23.278 23.19618,-23.15299 23.19631,-23.15301 -3.02731,-3.12335 c -1.66504,-1.7179 -3.69559,-3.12341 -4.51239,-3.12341 -0.81678,0 -10.4836,8.78975 -21.48175,19.53279 l -19.9967,19.53282 V 287.9028 269.25384 h -5.30331 -5.30328 v 50.3814 50.38131 h 5.30328 5.30331 v -18.3273 -18.32728 l 10.82754,10.61405 c 21.30481,20.88459 29.5879,28.69218 30.43958,28.69218 0.47549,0 2.42257,-1.3665 4.32657,-3.03669 z M 185.37,319.63524 v -50.3814 h -5.30328 -5.30332 v 50.3814 50.38131 h 5.30332 5.30328 z m 90.15611,28.28427 V 325.8224 h 24.74876 24.74873 v -30.494 -30.49395 h -30.05205 -30.05204 v 52.59106 52.59104 h 5.30328 5.30332 z m 139.65359,0 V 325.8224 h 19.88741 19.88733 v 22.09711 22.09704 h 5.30331 5.3033 v -52.59104 -52.59106 h -30.49394 -30.49402 v 52.59106 52.59104 h 5.30332 5.30329 z M 380.70824,240.08569 v -5.30328 H 358.1692 335.63021 v -19.88737 -19.88738 h 22.53899 22.53904 v -5.30332 -5.30329 H 358.1692 335.63021 V 164.9556 145.51021 h 22.53899 22.53904 v -5.30337 -5.30324 H 352.86589 325.0236 v 55.24272 55.24268 h 27.84229 27.84235 z m 79.54951,0 v -5.30328 H 437.71876 415.1797 v -16.11647 -16.1164 l 9.48769,-9.51723 9.48771,-9.51721 -3.73614,-3.7362 -3.73621,-3.73616 -5.75148,5.70041 -5.75157,5.70042 V 163.3833 139.32299 h -5.30329 -5.30332 v 29.40491 29.40491 l -9.27013,9.23864 -9.27016,9.2386 3.26236,3.3409 c 1.79428,1.83755 3.66723,3.34102 4.16219,3.34102 0.49499,0 3.19839,-2.27467 6.00781,-5.05473 l 5.10793,-5.05463 v 16.10318 16.10321 h 27.84235 27.84231 z m -147.2105,0 h 2.25361 v -50.38135 -50.38135 h -5.29437 -5.29439 l -0.23001,40.43767 -0.22998,40.43769 -7.44206,-12.37441 c -12.39235,-20.60554 -11.6569,-19.75433 -16.6139,-19.22784 -2.32556,0.24701 -4.88224,1.01865 -5.68149,1.7148 -0.79921,0.69609 -5.37336,7.70559 -10.16464,15.57656 l -8.71152,14.31089 -0.22999,-40.43769 -0.23,-40.43767 h -5.29441 -5.29435 v 50.38135 50.38135 h 2.16809 c 1.19247,0 3.16941,0.45602 4.39325,1.01385 1.71141,0.77982 2.53275,0.75852 3.5577,-0.0919 0.73292,-0.60829 6.60884,-9.81496 13.05766,-20.45927 6.44874,-10.64434 11.94854,-19.35334 12.2217,-19.35334 0.273,0 4.02952,5.8668 8.34741,13.0373 4.31795,7.1705 9.98683,16.51584 12.59764,20.76751 l 4.74691,7.73021 2.55653,-1.32207 c 1.40612,-0.72709 3.57065,-1.32203 4.81015,-1.32203 z M 185.37,217.54665 v -22.53899 h 19.44545 19.4454 v 22.53899 22.53904 h 5.74525 5.74525 V 187.49465 134.9036 h -30.494 -30.49395 v 52.59105 52.59104 h 5.30332 5.30328 z"
       id="path530"
       inkscape:connector-curvature="0" />
    <path
       style="fill:#ffffff;stroke-width:0.8838836"
       d="m 415.1797,294.88652 v -19.44548 h 19.88741 19.88733 v 19.44548 19.44544 H 435.06711 415.1797 Z"
       id="path532"
       inkscape:connector-curvature="0" />
    <path
       style="fill:#ffffff;stroke-width:0.8838836"
       d="M 5.0577504,250.25035 V 5.8566003 H 249.89352 494.72921 V 250.25035 494.64415 H 249.89352 5.0577504 Z M 155.31796,255.11171 V 104.85155 H 94.77195 34.2259 V 255.11171 405.3719 h 60.54605 60.54601 z m 99.87884,67.17519 v -53.03306 h -5.30328 -5.30332 v 47.72975 47.72972 h -19.44545 -19.44544 v -47.2878 -47.28775 h -5.30332 -5.30328 v 19.30073 c 0,10.61546 -0.2635,34.28145 -0.5854,52.59112 l -0.58547,33.29029 h 30.63745 30.63748 z m 135.67611,47.32596 3.53554,-3.0291 -23.27136,-23.32887 -23.27134,-23.32888 23.27134,-23.14256 23.27136,-23.1425 -3.30159,-3.07745 c -1.81588,-1.69253 -3.75376,-3.0774 -4.30645,-3.0774 -1.08185,0 -8.93717,7.32925 -28.85215,26.9198 l -12.59536,12.39015 v -18.7711 -18.77111 h -5.30331 -5.30328 v 50.3814 50.38131 h 5.28535 5.28538 l 0.23902,-18.09969 0.239,-18.0997 20.07138,19.42554 c 11.0393,10.68407 20.38636,19.41959 20.77126,19.4124 0.385,-0.004 2.29083,-1.37625 4.23539,-3.04224 z M 185.37,319.63524 v -50.3814 h -5.30328 -5.30332 v 50.3814 50.38131 h 5.30332 5.30328 z m 90.15611,28.28427 V 325.8224 h 24.74876 24.74873 v -30.494 -30.49395 h -30.05205 -30.05204 v 52.59106 52.59104 h 5.30328 5.30332 z m 139.65359,0 V 325.8224 h 19.88741 19.88733 v 22.09711 22.09704 h 5.30331 5.3033 v -52.59104 -52.59106 h -30.49394 -30.49402 v 52.59106 52.59104 h 5.30332 5.30329 z M 380.70824,240.08569 v -5.30328 H 358.1692 335.63021 v -19.88737 -19.88738 h 22.53899 22.53904 v -5.30332 -5.30329 H 358.1692 335.63021 V 164.9556 145.51021 h 22.53899 22.53904 v -5.30337 -5.30324 H 352.86589 325.0236 v 55.24272 55.24268 h 27.84229 27.84235 z m 79.54951,0 v -5.30328 H 437.71876 415.1797 v -16.11647 -16.1164 l 9.48769,-9.51723 9.48771,-9.51721 -3.73614,-3.7362 -3.73621,-3.73616 -5.75148,5.70041 -5.75157,5.70042 V 163.3833 139.32299 h -5.30329 -5.30332 v 29.40491 29.40491 l -9.27013,9.23864 -9.27016,9.2386 3.26236,3.3409 c 1.79428,1.83755 3.60891,3.34102 4.03244,3.34102 0.4235,0 3.1271,-2.24821 6.00779,-4.99597 l 5.2377,-4.99589 v 16.04444 16.04445 h 27.84235 27.84231 z m -201.23819,-5.52424 c 2.56681,-4.01064 8.22185,-13.15879 12.56675,-20.32934 4.34489,-7.17051 8.11939,-13.03725 8.38784,-13.03725 0.2685,0 6.03971,9.16938 12.82505,20.37644 11.62926,19.20756 12.46376,20.34485 14.5467,19.82435 1.21537,-0.3035 3.50241,-0.76621 5.08234,-1.02776 l 2.87262,-0.47547 v -50.28477 -50.28466 h -5.29437 -5.29439 l -0.23001,40.43767 -0.22998,40.43769 -8.5796,-14.14215 c -11.52246,-18.99294 -10.29978,-17.61245 -15.39826,-17.38574 -5.3982,0.23998 -5.60696,0.46949 -16.27814,17.88675 l -8.35756,13.64114 -0.22999,-40.43765 -0.23001,-40.43771 h -5.29445 -5.29435 v 50.38135 50.38135 l 2.43065,0.0146 c 1.3369,0.004 3.02731,0.39899 3.7565,0.87038 2.55335,1.65013 3.61134,0.82751 8.2422,-6.40815 z M 185.37,217.54665 v -22.53899 h 19.44545 19.4454 v 22.53899 22.53904 h 5.74525 5.74525 V 187.49465 134.9036 h -30.494 -30.49395 v 52.59105 52.59104 h 5.30332 5.30328 z"
       id="path534"
       inkscape:connector-curvature="0" />
    <path
       style="fill:#ffffff;stroke-width:0.8838836"
       d="m 275.52611,294.88652 v -19.44548 h 19.44544 19.44545 v 19.44548 19.44544 h -19.44545 -19.44544 z"
       id="path536"
       inkscape:connector-curvature="0" />
    <path
       style="fill:#ffffff;stroke-width:0.8838836"
       d="M 5.0577504,250.25035 V 5.8566003 H 249.89352 494.72921 V 250.25035 494.64415 H 249.89352 5.0577504 Z M 155.31796,255.11171 V 104.85155 H 94.77195 34.2259 V 255.11171 405.3719 h 60.54605 60.54601 z m 99.87884,67.17519 v -53.03306 h -5.30328 -5.30332 v 47.72975 47.72972 h -19.44545 -19.44544 v -47.2878 -47.28775 h -5.30332 -5.30328 l -0.002,26.73748 c -0.002,14.70563 -0.264,38.37157 -0.5836,52.59105 l -0.58081,25.85361 h 30.6356 30.63561 v -53.033 z m 135.6386,47.21965 3.498,-3.08804 -23.37915,-23.39167 -23.37913,-23.3916 23.27814,-23.29059 23.27813,-23.29059 -3.37739,-2.78395 c -1.8576,-1.53119 -3.74404,-2.78401 -4.19206,-2.78401 -0.78659,0 -8.97423,7.7391 -30.82339,29.135 l -10.38565,10.17019 v -18.76867 -18.76878 h -5.30331 -5.30328 v 50.3814 50.38131 h 5.28535 5.28538 l 0.23902,-18.178 0.239,-18.17799 20.13044,19.50385 c 11.07172,10.72709 20.41881,19.48728 20.77126,19.46704 0.3525,-0.021 2.21491,-1.42646 4.13879,-3.1249 z M 185.37,319.63524 v -50.3814 h -5.30328 -5.30332 v 50.3814 50.38131 h 5.30332 5.30328 z m 90.15611,28.28427 V 325.8224 h 24.74876 24.74873 v -30.494 -30.49395 h -30.05205 -30.05204 v 52.59106 52.59104 h 5.30328 5.30332 z m 139.65359,0 V 325.8224 h 19.88741 19.88733 v 22.09711 22.09704 h 5.30331 5.3033 v -52.59104 -52.59106 h -30.49394 -30.49402 v 52.59106 52.59104 h 5.30332 5.30329 z M 380.70824,240.08569 v -5.30328 H 358.1692 335.63021 v -19.88737 -19.88738 h 22.53899 22.53904 v -5.30332 -5.30329 H 358.1692 335.63021 V 164.9556 145.51021 h 22.53899 22.53904 v -5.30337 -5.30324 H 352.86589 325.0236 v 55.24272 55.24268 h 27.84229 27.84235 z m 79.54951,0 v -5.30328 H 437.71876 415.1797 v -16.11647 -16.1164 l 9.48769,-9.51723 9.48771,-9.51721 -3.73614,-3.7362 -3.73621,-3.73616 -5.75148,5.70041 -5.75157,5.70042 V 163.3833 139.32299 h -5.30329 -5.30332 v 29.4057 29.40571 l -8.83884,8.80566 c -4.86134,4.84314 -8.83879,9.26915 -8.83879,9.83553 0,0.5664 1.42769,2.28352 3.17273,3.81566 3.59725,3.15839 3.31001,3.2533 10.30645,-3.40314 l 4.19845,-3.9944 v 16.09764 16.09765 h 27.84235 27.84231 z M 257.64676,236.7487 c 1.81238,-2.80759 7.45415,-11.9558 12.53714,-20.32929 5.08304,-8.3735 9.4979,-15.22455 9.8108,-15.22455 0.31302,0 5.62011,8.3328 11.79384,18.51735 14.05502,23.18594 13.77817,22.83295 16.82096,21.44654 1.2953,-0.5902 3.3308,-1.07306 4.52325,-1.07306 h 2.16811 v -50.38135 -50.38135 h -5.29437 -5.29439 l -0.23001,40.43767 -0.22998,40.43769 -8.3351,-13.70021 c -11.48355,-18.87539 -10.39935,-17.61728 -15.21086,-17.64989 -2.65371,-0.021 -4.74455,0.518 -5.92584,1.51901 -1.00397,0.85069 -5.42357,7.49344 -9.82135,14.76158 -4.39786,7.2681 -8.39346,13.61222 -8.8792,14.09792 -0.58827,0.58829 -0.88321,-12.60326 -0.88321,-39.51031 v -40.39346 h -5.3033 -5.3033 v 50.38135 50.38135 l 2.4307,0.062 c 1.33684,0.035 3.22615,0.404 4.19845,0.82181 2.83665,1.21893 2.97409,1.12864 6.42741,-4.22087 z M 185.37,217.54665 v -22.53899 h 19.44545 19.4454 v 22.53899 22.53904 h 5.74525 5.74525 V 187.49465 134.9036 h -30.494 -30.49395 v 52.59105 52.59104 h 5.30332 5.30328 z"
       id="path538"
       inkscape:connector-curvature="0" />
    <path
       style="fill:#ffffff;stroke-width:0.8838836"
       d="M 44.832501,255.11171 V 115.45815 H 94.77195 144.71136 V 255.11171 394.7653 H 94.77195 44.832501 Z M 115.5432,370.4585 v -4.86136 h 3.46325 c 6.0896,0 6.25945,-0.23048 6.25945,-8.49144 v -7.41845 h -4.8832 c -4.3398,0 -4.9729,0.2355 -5.6889,2.11904 -0.6471,1.70202 -1.66575,2.23733 -5.17665,2.72015 l -4.371,0.60121 -0.5772,4.3509 -0.57725,4.3509 h -9.250249 -9.250349 v -4.94311 -4.94303 l -5.082302,0.30248 -5.082348,0.30251 -0.101493,-27.40035 c -0.05649,-15.07026 0.08601,-30.68181 0.314502,-34.69243 l 0.416,-7.29207 h 4.767798 4.76775 v -4.8614 -4.86134 h 9.170301 9.1703 l 0.5524,2.76209 c 0.304,1.51919 0.55235,3.7068 0.55235,4.8614 0,1.95525 0.3335,2.09921 4.8614,2.09921 4.5382,0 4.86135,0.14061 4.86135,2.11516 0,2.50519 1.43555,3.18812 6.7014,3.18812 h 3.9052 v -7.95483 -7.95497 h -4.8613 -4.86135 v -4.86139 -4.8614 H 95.213711 74.88441 v 4.8614 4.86136 h -4.739701 -4.739798 l -0.574702,7.29203 c -0.612498,7.77216 -0.5207,70.13828 0.115995,78.6656 l 0.3795,5.08236 h 4.779549 4.779551 v 4.86136 4.86134 H 95.214092 115.54344 Z M 75.768451,217.98862 V 195.89155 H 100.5172 125.2659 V 164.9556 134.0197 h -10.0218 c -5.512,0 -19.0354,0.2625 -30.052048,0.5829 l -20.030201,0.5829 v 52.45005 52.4501 h 5.303301 5.303299 z"
       id="path540"
       inkscape:connector-curvature="0" />
    <path
       style="fill:#ffffff;stroke-width:0.8838836"
       d="M 44.832501,255.11171 V 115.45815 H 94.77195 144.71136 V 255.11171 394.7653 H 94.77195 44.832501 Z M 115.5432,370.4585 v -4.86136 h 3.1517 c 5.86575,0 6.571,-0.95198 6.571,-8.86987 v -7.04002 h -4.39905 c -3.707,0 -4.62485,0.3445 -5.8347,2.19117 -1.08115,1.64998 -2.505,2.33299 -5.76565,2.76548 -3.93225,0.5216 -4.331,0.78722 -4.342,2.89119 -0.03,6.20265 -0.1815,6.29431 -10.255649,6.29431 h -9.1777 v -4.9476 -4.94761 l -5.082299,0.30702 -5.082352,0.30698 -0.272998,-25.63264 c -0.149998,-14.09789 -0.01,-29.70949 0.305998,-34.6924 l 0.579101,-9.05981 h 4.7763 4.7763 v -4.86138 -4.86136 h 9.177701 c 10.193198,0 10.226998,0.021 10.255698,6.8501 l 0.01,2.87264 h 4.86134 c 4.09205,0 4.86135,0.25202 4.86135,1.59097 0,2.61629 1.8789,3.71234 6.36395,3.71234 h 4.24265 v -7.95496 -7.95494 h -4.86164 -4.86141 v -4.8614 -4.86134 H 95.211615 74.882314 v 4.86134 4.8614 H 70.15985 65.437451 l -0.606099,20.33066 c -0.333501,11.18184 -0.3325,31.66586 0.0013,45.51999 l 0.607502,25.18936 h 4.721048 4.721102 v 4.86134 4.86136 h 20.3293 20.329296 z M 75.768451,217.98862 V 195.89155 H 100.5172 125.2659 V 164.81464 133.7377 l -20.0302,0.5829 c -11.016647,0.3205 -24.540049,0.5829 -30.052049,0.5829 h -10.0218 v 52.59106 52.59109 h 5.303301 5.303299 z"
       id="path542"
       inkscape:connector-curvature="0" />
    <path
       style="fill:#ffffff;stroke-width:0.8838836"
       d="m 75.765201,177.55094 c -0.0017,-3.76755 -0.262499,-12.51799 -0.579399,-19.44545 L 74.6096,145.51021 h 20.024901 20.024849 v 19.44539 19.44545 h -19.445449 -19.4454 z"
       id="path544"
       inkscape:connector-curvature="0"
       inkscape:export-xdpi="119.85098"
       inkscape:export-ydpi="119.85098" />
  </g>
</svg>
